<svg width="691" height="759" viewBox="0 0 691 759" fill="none" xmlns="http://www.w3.org/2000/svg">
<g clip-path="url(#clip0_83_2)">
<path d="M520.93 751.52L157.713 674.316L293.918 33.5229L657.135 110.727C667.697 112.972 674.15 124.679 671.555 136.887L544.744 733.487C542.15 745.695 531.493 753.765 520.93 751.52Z" fill="#25B99A"/>
<path d="M376.26 131.833C372.399 131.012 368.232 131.951 364.636 134.674L344.955 149.579C318.569 169.559 305.558 194.253 305.19 225.076C304.861 252.569 314.695 284.648 334.42 320.446L390.219 421.671C409.955 457.46 430.863 481.154 452.381 492.113C476.486 504.385 501.06 500.636 527.448 480.644L547.13 465.74C552.943 461.328 555.744 453.413 554.079 446.017C549.449 425.309 522.941 394.214 513.108 383.982C509.679 380.517 505.646 378.528 502.672 378.796C501.681 378.897 500.342 379.271 498.831 381.213L497.482 382.67C488.597 390.724 477.069 400.779 472.509 403.008C448.208 414.876 428.227 408.203 414.717 383.68L374.039 309.884C360.517 285.37 363.536 261.255 382.768 240.192C386.366 236.235 398.936 228.052 408.851 221.867L410.527 221.035C412.67 220.208 413.511 218.932 413.988 217.914C415.448 214.852 415.532 209.708 414.203 204.495C410.319 189.917 397.037 148.815 382.834 135.357C380.896 133.523 378.641 132.339 376.26 131.833ZM463.794 520.011C456.969 518.56 450.204 516.129 443.496 512.716C418.641 500.066 395.047 473.734 373.383 434.419L317.585 333.194C295.921 293.877 285.129 257.843 285.505 226.086C285.967 187.443 302.543 155.469 334.76 131.083L354.442 116.178C367.684 106.141 384.377 106.757 395.932 117.723C416.863 137.553 431.502 190.93 433.099 196.951C435.969 208.219 435.262 219.108 431.166 227.717C428.013 234.321 423.047 239.214 416.763 241.897C408.087 247.327 397.795 254.192 395.802 256.101C383.66 269.421 382.181 281.359 390.876 297.133L431.557 370.918C440.267 386.719 450.152 390.032 465.674 382.43C467.8 381.173 477.367 373.01 485.155 365.981C489.824 360.369 495.66 357.071 502.093 356.418C510.476 355.567 519.229 359.276 526.741 366.888C530.856 371.169 566.356 408.75 573.176 439.265C576.942 456.139 570.575 474.208 557.323 484.243L537.643 499.136C512.557 518.124 487.805 525.114 463.794 520.011Z" fill="#129979"/>
<path d="M482.707 441.226C482.382 441.157 482.052 441.063 481.724 440.959C438.756 426.296 416.72 387.697 415.8 386.058C412.955 380.973 414.391 373.981 419.025 370.416C423.647 366.861 429.69 368.088 432.55 373.152C432.747 373.495 452.095 407.018 488.377 419.395C493.488 421.151 496.149 427.387 494.312 433.348C492.591 438.904 487.542 442.254 482.707 441.226Z" fill="#129979"/>
<path d="M383.424 321.012C381.283 320.557 379.318 319.273 377.901 317.193C376.716 315.487 349.167 274.527 355.496 221.958C356.243 215.766 361.21 211.151 366.593 211.626C372.035 212.297 375.745 217.543 374.994 223.711C369.795 266.924 393.446 302.391 393.69 302.742C396.914 307.504 396.008 314.587 391.645 318.566C389.192 320.806 386.176 321.597 383.424 321.012Z" fill="#129979"/>
<path d="M157.713 674.316L81.2456 658.062C70.6841 655.817 64.2309 644.11 66.8257 631.903L193.637 35.302C196.232 23.0944 206.889 15.0244 217.45 17.2693L293.918 33.5229L157.713 674.316Z" fill="#129979"/>
<path d="M170.154 145.784C143.801 140.182 127.629 110.845 134.103 80.3844C140.578 49.9242 167.284 29.7006 193.637 35.302C219.99 40.9035 236.162 70.2412 229.687 100.701C228.388 106.811 223.056 110.84 217.78 109.718C212.504 108.597 209.271 102.748 210.57 96.6378C214.454 78.3639 204.749 60.7584 188.939 57.3979C173.13 54.0374 157.105 66.1741 153.221 84.448C149.337 102.722 159.042 120.327 174.851 123.688C180.128 124.809 183.36 130.658 182.062 136.768C180.763 142.878 175.43 146.905 170.154 145.784Z" fill="#E6EEF3"/>
<path d="M144.322 267.313C117.969 261.711 101.797 232.374 108.272 201.914C114.746 171.453 141.453 151.23 167.805 156.831C194.158 162.433 210.33 191.77 203.855 222.231C202.557 228.341 197.225 232.369 191.948 231.247C186.672 230.126 183.439 224.277 184.738 218.167C188.622 199.893 178.917 182.287 163.108 178.927C147.298 175.567 131.271 187.703 127.387 205.977C123.503 224.251 133.208 241.856 149.017 245.217C154.294 246.338 157.526 252.187 156.228 258.297C154.929 264.407 149.598 268.434 144.322 267.313Z" fill="#E6EEF3"/>
<path d="M118.49 388.843C92.1368 383.242 75.965 353.904 82.4395 323.444C88.914 292.984 115.62 272.76 141.973 278.362C168.326 283.963 184.498 313.301 178.023 343.761C176.725 349.871 171.392 353.899 166.116 352.778C160.84 351.656 157.607 345.807 158.906 339.697C162.79 321.423 153.085 303.818 137.275 300.457C121.466 297.097 105.441 309.234 101.557 327.508C97.6729 345.781 107.378 363.387 123.187 366.747C128.464 367.869 131.696 373.718 130.398 379.828C129.098 385.936 123.766 389.965 118.49 388.843Z" fill="#E6EEF3"/>
<path d="M92.6578 510.372C66.305 504.771 50.1332 475.433 56.6077 444.973C63.0822 414.513 89.7886 394.289 116.141 399.891C142.494 405.492 158.666 434.83 152.192 465.29C150.893 471.4 145.561 475.428 140.284 474.307C135.008 473.185 131.775 467.337 133.074 461.226C136.958 442.953 127.253 425.347 111.444 421.987C95.6339 418.626 79.6074 430.762 75.7232 449.036C71.8389 467.31 81.5437 484.916 97.3534 488.276C102.63 489.398 105.862 495.247 104.564 501.357C103.266 507.466 97.9342 511.494 92.6578 510.372Z" fill="#E6EEF3"/>
<path d="M66.8257 631.903C40.4729 626.301 24.3011 596.964 30.7756 566.503C37.2502 536.043 63.9566 515.82 90.3093 521.421C116.662 527.023 132.834 556.36 126.359 586.82C125.061 592.931 119.729 596.959 114.452 595.837C109.176 594.716 105.943 588.867 107.242 582.757C111.126 564.483 101.421 546.877 85.6116 543.517C69.8019 540.157 53.7753 552.293 49.8911 570.567C46.0069 588.84 55.7116 606.446 71.5213 609.807C76.7977 610.928 80.0304 616.777 78.7317 622.887C77.4343 628.996 72.1021 633.024 66.8257 631.903Z" fill="#E6EEF3"/>
<path d="M322.058 559.133L245.591 542.879C240.315 541.758 237.082 535.909 238.381 529.799C239.68 523.689 245.012 519.661 250.288 520.782L326.755 537.036C332.032 538.157 335.265 544.006 333.966 550.116C332.667 556.226 327.335 560.255 322.058 559.133Z" fill="#129979"/>
<path d="M513.226 599.767L360.293 567.26C355.016 566.138 351.784 560.29 353.082 554.18C354.381 548.069 359.713 544.041 364.99 545.163L517.923 577.67C523.209 578.793 526.432 584.64 525.133 590.75C523.835 596.86 518.512 600.891 513.226 599.767Z" fill="#129979"/>
<path d="M503.832 643.96L456.041 633.802C450.764 632.68 447.531 626.832 448.83 620.721C450.129 614.611 455.461 610.583 460.737 611.705L508.529 621.863C513.816 622.987 517.038 628.833 515.74 634.944C514.441 641.054 509.119 645.084 503.832 643.96Z" fill="#129979"/>
<path d="M417.807 625.675L303.107 601.295C297.831 600.173 294.598 594.325 295.897 588.214C297.196 582.104 302.528 578.076 307.804 579.198L422.504 603.578C427.781 604.699 431.013 610.548 429.715 616.658C428.415 622.768 423.084 626.797 417.807 625.675Z" fill="#129979"/>
<path d="M494.439 688.153L398.855 667.836C393.579 666.714 390.346 660.865 391.645 654.755C392.944 648.645 398.276 644.617 403.552 645.738L499.136 666.055C504.422 667.179 507.645 673.026 506.346 679.136C505.048 685.246 499.725 689.276 494.439 688.153Z" fill="#129979"/>
<path d="M360.622 659.709L226.805 631.265C221.529 630.144 218.296 624.295 219.595 618.185C220.894 612.075 226.226 608.046 231.502 609.168L365.319 637.612C370.596 638.733 373.828 644.582 372.53 650.692C371.23 656.802 365.899 660.83 360.622 659.709Z" fill="#129979"/>
<path d="M264.873 593.168L236.198 587.073C230.921 585.951 227.689 580.102 228.987 573.992C230.286 567.882 235.618 563.854 240.895 564.976L269.57 571.071C274.846 572.192 278.079 578.041 276.78 584.151C275.482 590.261 270.149 594.29 264.873 593.168Z" fill="#129979"/>
</g>
<defs>
<clipPath id="clip0_83_2">
<rect width="566.77" height="655.109" fill="white" transform="translate(136.205) rotate(12)"/>
</clipPath>
</defs>
</svg>
